<mxfile host="Electron" modified="2023-04-20T04:49:45.476Z" agent="Mozilla/5.0 (Macintosh; Intel Mac OS X 10_15_7) AppleWebKit/537.36 (KHTML, like Gecko) draw.io/21.1.2 Chrome/106.0.5249.199 Electron/21.4.3 Safari/537.36" etag="500TrPxvL1Jg1PPijXNF" version="21.1.2" type="device">
  <diagram id="6a731a19-8d31-9384-78a2-239565b7b9f0" name="Page-1">
    <mxGraphModel dx="2593" dy="1518" grid="1" gridSize="10" guides="1" tooltips="1" connect="1" arrows="1" fold="1" page="1" pageScale="1" pageWidth="827" pageHeight="1169" background="none" math="0" shadow="0">
      <root>
        <mxCell id="0" />
        <mxCell id="1" parent="0" />
        <mxCell id="2109" value="Internet" style="shape=mxgraph.cisco.storage.cloud;html=1;dashed=0;strokeColor=#23445D;fillColor=#ffffff;strokeWidth=2;fontFamily=Helvetica;fontSize=24;fontColor=#23445D;align=center;fontStyle=1" parent="1" vertex="1">
          <mxGeometry x="682" y="40" width="186" height="106" as="geometry" />
        </mxCell>
        <mxCell id="2113" value="" style="shape=mxgraph.cisco.switches.layer_3_switch;html=1;dashed=0;fillColor=#10739E;strokeColor=#ffffff;strokeWidth=2;verticalLabelPosition=bottom;verticalAlign=top;fontFamily=Helvetica;fontSize=36;fontColor=#FFB366" parent="1" vertex="1">
          <mxGeometry x="1045" y="330" width="64" height="64" as="geometry" />
        </mxCell>
        <mxCell id="2138" value="" style="shape=mxgraph.cisco.routers.router;html=1;dashed=0;fillColor=#10739E;strokeColor=#ffffff;strokeWidth=2;verticalLabelPosition=bottom;verticalAlign=top;fontFamily=Helvetica;fontSize=36;fontColor=#FFB366" parent="1" vertex="1">
          <mxGeometry x="855" y="75" width="78" height="53" as="geometry" />
        </mxCell>
        <mxCell id="2170" value="" style="elbow=horizontal;endArrow=none;html=1;strokeColor=#23445D;endFill=0;strokeWidth=4;rounded=1;exitX=0.5;exitY=0;exitDx=0;exitDy=0;exitPerimeter=0;" parent="1" source="Zg446pFr2e7XvsKzSFGU-2379" target="2138" edge="1">
          <mxGeometry width="100" height="100" relative="1" as="geometry">
            <mxPoint x="1042.8313953488373" y="205" as="sourcePoint" />
            <mxPoint x="1045.2777777777778" y="193.08333333333337" as="targetPoint" />
          </mxGeometry>
        </mxCell>
        <mxCell id="Zg446pFr2e7XvsKzSFGU-2379" value="" style="shape=mxgraph.cisco.servers.fileserver;html=1;dashed=0;fillColor=#10739E;strokeColor=#ffffff;strokeWidth=2;verticalLabelPosition=bottom;verticalAlign=top;fontFamily=Helvetica;fontSize=36;fontColor=#FFB366" vertex="1" parent="1">
          <mxGeometry x="1055" y="183" width="43" height="62" as="geometry" />
        </mxCell>
        <mxCell id="Zg446pFr2e7XvsKzSFGU-2381" value="&lt;font style=&quot;font-size: 16px;&quot;&gt;Staff (2) &amp;amp;&lt;br&gt;Student (3)&lt;br&gt;VLANs&lt;/font&gt;" style="edgeStyle=none;rounded=1;html=1;strokeColor=#23445D;endArrow=none;endFill=0;strokeWidth=4;entryX=0.5;entryY=0;entryDx=0;entryDy=0;entryPerimeter=0;exitX=0.5;exitY=1;exitDx=0;exitDy=0;exitPerimeter=0;" edge="1" parent="1" source="Zg446pFr2e7XvsKzSFGU-2379" target="2113">
          <mxGeometry x="-0.1829" y="-47" relative="1" as="geometry">
            <mxPoint x="1055" y="271" as="sourcePoint" />
            <mxPoint x="1022" y="313" as="targetPoint" />
            <mxPoint as="offset" />
          </mxGeometry>
        </mxCell>
        <mxCell id="Zg446pFr2e7XvsKzSFGU-2387" value="" style="group" vertex="1" connectable="0" parent="1">
          <mxGeometry x="155" y="417.6" width="187" height="679.9999999999999" as="geometry" />
        </mxCell>
        <mxCell id="Zg446pFr2e7XvsKzSFGU-2319" value="" style="rounded=1;whiteSpace=wrap;html=1;strokeColor=none;fillColor=#BAC8D3;fontSize=24;fontColor=#23445D;align=center;opacity=60;" vertex="1" parent="Zg446pFr2e7XvsKzSFGU-2387">
          <mxGeometry y="65" width="160" height="615" as="geometry" />
        </mxCell>
        <mxCell id="Zg446pFr2e7XvsKzSFGU-2320" value="" style="shape=mxgraph.cisco.switches.workgroup_switch;html=1;dashed=0;fillColor=#10739E;strokeColor=#ffffff;strokeWidth=2;verticalLabelPosition=bottom;verticalAlign=top;fontFamily=Helvetica;fontSize=36;fontColor=#FFB366" vertex="1" parent="Zg446pFr2e7XvsKzSFGU-2387">
          <mxGeometry x="86" width="101" height="50" as="geometry" />
        </mxCell>
        <mxCell id="Zg446pFr2e7XvsKzSFGU-2322" style="edgeStyle=orthogonalEdgeStyle;rounded=1;html=1;strokeColor=#23445D;endArrow=none;endFill=0;strokeWidth=4;entryX=0.675;entryY=0.532;entryDx=0;entryDy=0;entryPerimeter=0;" edge="1" parent="Zg446pFr2e7XvsKzSFGU-2387" source="Zg446pFr2e7XvsKzSFGU-2320" target="Zg446pFr2e7XvsKzSFGU-2331">
          <mxGeometry relative="1" as="geometry">
            <Array as="points">
              <mxPoint x="137" y="106" />
            </Array>
            <mxPoint x="104" y="106" as="targetPoint" />
          </mxGeometry>
        </mxCell>
        <mxCell id="Zg446pFr2e7XvsKzSFGU-2323" style="edgeStyle=orthogonalEdgeStyle;rounded=1;html=1;strokeColor=#23445D;endArrow=none;endFill=0;strokeWidth=4;entryX=0.699;entryY=0.387;entryDx=0;entryDy=0;entryPerimeter=0;" edge="1" parent="Zg446pFr2e7XvsKzSFGU-2387" source="Zg446pFr2e7XvsKzSFGU-2320" target="Zg446pFr2e7XvsKzSFGU-2332">
          <mxGeometry relative="1" as="geometry">
            <Array as="points">
              <mxPoint x="137" y="176" />
              <mxPoint x="85" y="176" />
            </Array>
            <mxPoint x="104" y="176" as="targetPoint" />
          </mxGeometry>
        </mxCell>
        <mxCell id="Zg446pFr2e7XvsKzSFGU-2324" style="edgeStyle=orthogonalEdgeStyle;rounded=1;html=1;strokeColor=#23445D;endArrow=none;endFill=0;strokeWidth=4;entryX=0.711;entryY=0.306;entryDx=0;entryDy=0;entryPerimeter=0;" edge="1" parent="Zg446pFr2e7XvsKzSFGU-2387" source="Zg446pFr2e7XvsKzSFGU-2320" target="Zg446pFr2e7XvsKzSFGU-2333">
          <mxGeometry relative="1" as="geometry">
            <Array as="points">
              <mxPoint x="137" y="246" />
            </Array>
            <mxPoint x="104" y="246" as="targetPoint" />
          </mxGeometry>
        </mxCell>
        <mxCell id="Zg446pFr2e7XvsKzSFGU-2325" style="edgeStyle=orthogonalEdgeStyle;rounded=1;html=1;strokeColor=#23445D;endArrow=none;endFill=0;strokeWidth=4;entryX=0.687;entryY=0.355;entryDx=0;entryDy=0;entryPerimeter=0;" edge="1" parent="Zg446pFr2e7XvsKzSFGU-2387" source="Zg446pFr2e7XvsKzSFGU-2320" target="Zg446pFr2e7XvsKzSFGU-2334">
          <mxGeometry relative="1" as="geometry">
            <Array as="points">
              <mxPoint x="137" y="326" />
            </Array>
            <mxPoint x="104" y="326" as="targetPoint" />
          </mxGeometry>
        </mxCell>
        <mxCell id="Zg446pFr2e7XvsKzSFGU-2326" style="edgeStyle=orthogonalEdgeStyle;rounded=1;html=1;strokeColor=#23445D;endArrow=none;endFill=0;strokeWidth=4;entryX=0.699;entryY=0.29;entryDx=0;entryDy=0;entryPerimeter=0;" edge="1" parent="Zg446pFr2e7XvsKzSFGU-2387" source="Zg446pFr2e7XvsKzSFGU-2320" target="Zg446pFr2e7XvsKzSFGU-2335">
          <mxGeometry relative="1" as="geometry">
            <Array as="points">
              <mxPoint x="137" y="396" />
              <mxPoint x="85" y="396" />
            </Array>
            <mxPoint x="104" y="396" as="targetPoint" />
          </mxGeometry>
        </mxCell>
        <mxCell id="Zg446pFr2e7XvsKzSFGU-2327" style="edgeStyle=orthogonalEdgeStyle;rounded=1;html=1;strokeColor=#23445D;endArrow=none;endFill=0;strokeWidth=4;entryX=0.614;entryY=0.323;entryDx=0;entryDy=0;entryPerimeter=0;" edge="1" parent="Zg446pFr2e7XvsKzSFGU-2387" source="Zg446pFr2e7XvsKzSFGU-2320" target="Zg446pFr2e7XvsKzSFGU-2336">
          <mxGeometry relative="1" as="geometry">
            <Array as="points">
              <mxPoint x="137" y="466" />
            </Array>
            <mxPoint x="104" y="466" as="targetPoint" />
          </mxGeometry>
        </mxCell>
        <mxCell id="Zg446pFr2e7XvsKzSFGU-2328" value="Classroom 1" style="rounded=1;whiteSpace=wrap;html=1;strokeColor=none;fillColor=none;fontSize=14;fontColor=#23445D;align=center;fontStyle=1" vertex="1" parent="Zg446pFr2e7XvsKzSFGU-2387">
          <mxGeometry x="34" y="651.9999999999999" width="93" height="20" as="geometry" />
        </mxCell>
        <mxCell id="Zg446pFr2e7XvsKzSFGU-2329" style="edgeStyle=orthogonalEdgeStyle;rounded=1;html=1;endArrow=none;endFill=0;strokeColor=#23445D;strokeWidth=4;fontSize=14;fontColor=#990000;entryX=0.687;entryY=0.355;entryDx=0;entryDy=0;entryPerimeter=0;" edge="1" parent="Zg446pFr2e7XvsKzSFGU-2387" source="Zg446pFr2e7XvsKzSFGU-2320" target="Zg446pFr2e7XvsKzSFGU-2337">
          <mxGeometry relative="1" as="geometry">
            <Array as="points">
              <mxPoint x="137" y="540" />
            </Array>
            <mxPoint x="104" y="540" as="targetPoint" />
          </mxGeometry>
        </mxCell>
        <mxCell id="Zg446pFr2e7XvsKzSFGU-2330" style="edgeStyle=orthogonalEdgeStyle;rounded=1;html=1;endArrow=none;endFill=0;strokeColor=#23445D;strokeWidth=4;fontSize=14;fontColor=#990000;entryX=0.687;entryY=0.323;entryDx=0;entryDy=0;entryPerimeter=0;" edge="1" parent="Zg446pFr2e7XvsKzSFGU-2387" source="Zg446pFr2e7XvsKzSFGU-2320" target="Zg446pFr2e7XvsKzSFGU-2338">
          <mxGeometry relative="1" as="geometry">
            <Array as="points">
              <mxPoint x="137" y="609.9999999999999" />
            </Array>
            <mxPoint x="104" y="609.9999999999999" as="targetPoint" />
          </mxGeometry>
        </mxCell>
        <mxCell id="Zg446pFr2e7XvsKzSFGU-2331" value="" style="shape=mxgraph.cisco.computers_and_peripherals.workstation;html=1;dashed=0;fillColor=#10739E;strokeColor=#ffffff;strokeWidth=2;verticalLabelPosition=bottom;verticalAlign=top;fontFamily=Helvetica;fontSize=36;fontColor=#FFB366" vertex="1" parent="Zg446pFr2e7XvsKzSFGU-2387">
          <mxGeometry x="27" y="72" width="83" height="62" as="geometry" />
        </mxCell>
        <mxCell id="Zg446pFr2e7XvsKzSFGU-2332" value="" style="shape=mxgraph.cisco.computers_and_peripherals.workstation;html=1;dashed=0;fillColor=#10739E;strokeColor=#ffffff;strokeWidth=2;verticalLabelPosition=bottom;verticalAlign=top;fontFamily=Helvetica;fontSize=36;fontColor=#FFB366" vertex="1" parent="Zg446pFr2e7XvsKzSFGU-2387">
          <mxGeometry x="27" y="150" width="83" height="62" as="geometry" />
        </mxCell>
        <mxCell id="Zg446pFr2e7XvsKzSFGU-2333" value="" style="shape=mxgraph.cisco.computers_and_peripherals.workstation;html=1;dashed=0;fillColor=#10739E;strokeColor=#ffffff;strokeWidth=2;verticalLabelPosition=bottom;verticalAlign=top;fontFamily=Helvetica;fontSize=36;fontColor=#FFB366" vertex="1" parent="Zg446pFr2e7XvsKzSFGU-2387">
          <mxGeometry x="27" y="228" width="83" height="62" as="geometry" />
        </mxCell>
        <mxCell id="Zg446pFr2e7XvsKzSFGU-2334" value="" style="shape=mxgraph.cisco.computers_and_peripherals.workstation;html=1;dashed=0;fillColor=#10739E;strokeColor=#ffffff;strokeWidth=2;verticalLabelPosition=bottom;verticalAlign=top;fontFamily=Helvetica;fontSize=36;fontColor=#FFB366" vertex="1" parent="Zg446pFr2e7XvsKzSFGU-2387">
          <mxGeometry x="27" y="303" width="83" height="62" as="geometry" />
        </mxCell>
        <mxCell id="Zg446pFr2e7XvsKzSFGU-2335" value="" style="shape=mxgraph.cisco.computers_and_peripherals.workstation;html=1;dashed=0;fillColor=#10739E;strokeColor=#ffffff;strokeWidth=2;verticalLabelPosition=bottom;verticalAlign=top;fontFamily=Helvetica;fontSize=36;fontColor=#FFB366" vertex="1" parent="Zg446pFr2e7XvsKzSFGU-2387">
          <mxGeometry x="27" y="376" width="83" height="62" as="geometry" />
        </mxCell>
        <mxCell id="Zg446pFr2e7XvsKzSFGU-2336" value="" style="shape=mxgraph.cisco.computers_and_peripherals.workstation;html=1;dashed=0;fillColor=#10739E;strokeColor=#ffffff;strokeWidth=2;verticalLabelPosition=bottom;verticalAlign=top;fontFamily=Helvetica;fontSize=36;fontColor=#FFB366" vertex="1" parent="Zg446pFr2e7XvsKzSFGU-2387">
          <mxGeometry x="27" y="446" width="83" height="62" as="geometry" />
        </mxCell>
        <mxCell id="Zg446pFr2e7XvsKzSFGU-2337" value="" style="shape=mxgraph.cisco.computers_and_peripherals.workstation;html=1;dashed=0;fillColor=#10739E;strokeColor=#ffffff;strokeWidth=2;verticalLabelPosition=bottom;verticalAlign=top;fontFamily=Helvetica;fontSize=36;fontColor=#FFB366" vertex="1" parent="Zg446pFr2e7XvsKzSFGU-2387">
          <mxGeometry x="27" y="517" width="83" height="62" as="geometry" />
        </mxCell>
        <mxCell id="Zg446pFr2e7XvsKzSFGU-2338" value="" style="shape=mxgraph.cisco.computers_and_peripherals.workstation;html=1;dashed=0;fillColor=#10739E;strokeColor=#ffffff;strokeWidth=2;verticalLabelPosition=bottom;verticalAlign=top;fontFamily=Helvetica;fontSize=36;fontColor=#FFB366" vertex="1" parent="Zg446pFr2e7XvsKzSFGU-2387">
          <mxGeometry x="27" y="589.9999999999999" width="83" height="62" as="geometry" />
        </mxCell>
        <mxCell id="Zg446pFr2e7XvsKzSFGU-2388" value="" style="group" vertex="1" connectable="0" parent="1">
          <mxGeometry x="355" y="417.6" width="187" height="679.9999999999999" as="geometry" />
        </mxCell>
        <mxCell id="2091" value="" style="rounded=1;whiteSpace=wrap;html=1;strokeColor=none;fillColor=#BAC8D3;fontSize=24;fontColor=#23445D;align=center;opacity=60;" parent="Zg446pFr2e7XvsKzSFGU-2388" vertex="1">
          <mxGeometry y="65" width="160" height="615" as="geometry" />
        </mxCell>
        <mxCell id="2117" value="" style="shape=mxgraph.cisco.switches.workgroup_switch;html=1;dashed=0;fillColor=#10739E;strokeColor=#ffffff;strokeWidth=2;verticalLabelPosition=bottom;verticalAlign=top;fontFamily=Helvetica;fontSize=36;fontColor=#FFB366" parent="Zg446pFr2e7XvsKzSFGU-2388" vertex="1">
          <mxGeometry x="86" width="101" height="50" as="geometry" />
        </mxCell>
        <mxCell id="2194" style="edgeStyle=orthogonalEdgeStyle;rounded=1;html=1;strokeColor=#23445D;endArrow=none;endFill=0;strokeWidth=4;entryX=0.675;entryY=0.532;entryDx=0;entryDy=0;entryPerimeter=0;" parent="Zg446pFr2e7XvsKzSFGU-2388" source="2117" target="Zg446pFr2e7XvsKzSFGU-2260" edge="1">
          <mxGeometry relative="1" as="geometry">
            <Array as="points">
              <mxPoint x="137" y="106" />
            </Array>
            <mxPoint x="104" y="106" as="targetPoint" />
          </mxGeometry>
        </mxCell>
        <mxCell id="2195" style="edgeStyle=orthogonalEdgeStyle;rounded=1;html=1;strokeColor=#23445D;endArrow=none;endFill=0;strokeWidth=4;entryX=0.699;entryY=0.387;entryDx=0;entryDy=0;entryPerimeter=0;" parent="Zg446pFr2e7XvsKzSFGU-2388" source="2117" target="Zg446pFr2e7XvsKzSFGU-2262" edge="1">
          <mxGeometry relative="1" as="geometry">
            <Array as="points">
              <mxPoint x="137" y="176" />
              <mxPoint x="85" y="176" />
            </Array>
            <mxPoint x="104" y="176" as="targetPoint" />
          </mxGeometry>
        </mxCell>
        <mxCell id="2196" style="edgeStyle=orthogonalEdgeStyle;rounded=1;html=1;strokeColor=#23445D;endArrow=none;endFill=0;strokeWidth=4;entryX=0.711;entryY=0.306;entryDx=0;entryDy=0;entryPerimeter=0;" parent="Zg446pFr2e7XvsKzSFGU-2388" source="2117" target="Zg446pFr2e7XvsKzSFGU-2263" edge="1">
          <mxGeometry relative="1" as="geometry">
            <Array as="points">
              <mxPoint x="137" y="246" />
            </Array>
            <mxPoint x="104" y="246" as="targetPoint" />
          </mxGeometry>
        </mxCell>
        <mxCell id="2197" style="edgeStyle=orthogonalEdgeStyle;rounded=1;html=1;strokeColor=#23445D;endArrow=none;endFill=0;strokeWidth=4;entryX=0.687;entryY=0.355;entryDx=0;entryDy=0;entryPerimeter=0;" parent="Zg446pFr2e7XvsKzSFGU-2388" source="2117" target="Zg446pFr2e7XvsKzSFGU-2264" edge="1">
          <mxGeometry relative="1" as="geometry">
            <Array as="points">
              <mxPoint x="137" y="326" />
            </Array>
            <mxPoint x="104" y="326" as="targetPoint" />
          </mxGeometry>
        </mxCell>
        <mxCell id="2198" style="edgeStyle=orthogonalEdgeStyle;rounded=1;html=1;strokeColor=#23445D;endArrow=none;endFill=0;strokeWidth=4;entryX=0.699;entryY=0.29;entryDx=0;entryDy=0;entryPerimeter=0;" parent="Zg446pFr2e7XvsKzSFGU-2388" source="2117" target="Zg446pFr2e7XvsKzSFGU-2265" edge="1">
          <mxGeometry relative="1" as="geometry">
            <Array as="points">
              <mxPoint x="137" y="396" />
              <mxPoint x="85" y="396" />
            </Array>
            <mxPoint x="104" y="396" as="targetPoint" />
          </mxGeometry>
        </mxCell>
        <mxCell id="2199" style="edgeStyle=orthogonalEdgeStyle;rounded=1;html=1;strokeColor=#23445D;endArrow=none;endFill=0;strokeWidth=4;entryX=0.614;entryY=0.323;entryDx=0;entryDy=0;entryPerimeter=0;" parent="Zg446pFr2e7XvsKzSFGU-2388" source="2117" target="Zg446pFr2e7XvsKzSFGU-2266" edge="1">
          <mxGeometry relative="1" as="geometry">
            <Array as="points">
              <mxPoint x="137" y="466" />
            </Array>
            <mxPoint x="104" y="466" as="targetPoint" />
          </mxGeometry>
        </mxCell>
        <mxCell id="2231" value="Classroom 2" style="rounded=1;whiteSpace=wrap;html=1;strokeColor=none;fillColor=none;fontSize=14;fontColor=#23445D;align=center;fontStyle=1" parent="Zg446pFr2e7XvsKzSFGU-2388" vertex="1">
          <mxGeometry x="35" y="651.9999999999999" width="93" height="20" as="geometry" />
        </mxCell>
        <mxCell id="2255" style="edgeStyle=orthogonalEdgeStyle;rounded=1;html=1;endArrow=none;endFill=0;strokeColor=#23445D;strokeWidth=4;fontSize=14;fontColor=#990000;entryX=0.687;entryY=0.355;entryDx=0;entryDy=0;entryPerimeter=0;" parent="Zg446pFr2e7XvsKzSFGU-2388" source="2117" target="Zg446pFr2e7XvsKzSFGU-2267" edge="1">
          <mxGeometry relative="1" as="geometry">
            <Array as="points">
              <mxPoint x="137" y="540" />
            </Array>
            <mxPoint x="104" y="540" as="targetPoint" />
          </mxGeometry>
        </mxCell>
        <mxCell id="2256" style="edgeStyle=orthogonalEdgeStyle;rounded=1;html=1;endArrow=none;endFill=0;strokeColor=#23445D;strokeWidth=4;fontSize=14;fontColor=#990000;entryX=0.735;entryY=0.29;entryDx=0;entryDy=0;entryPerimeter=0;" parent="Zg446pFr2e7XvsKzSFGU-2388" source="2117" target="Zg446pFr2e7XvsKzSFGU-2268" edge="1">
          <mxGeometry relative="1" as="geometry">
            <Array as="points">
              <mxPoint x="137" y="609.9999999999999" />
              <mxPoint x="88" y="609.9999999999999" />
            </Array>
            <mxPoint x="104" y="609.9999999999999" as="targetPoint" />
          </mxGeometry>
        </mxCell>
        <mxCell id="Zg446pFr2e7XvsKzSFGU-2260" value="" style="shape=mxgraph.cisco.computers_and_peripherals.workstation;html=1;dashed=0;fillColor=#10739E;strokeColor=#ffffff;strokeWidth=2;verticalLabelPosition=bottom;verticalAlign=top;fontFamily=Helvetica;fontSize=36;fontColor=#FFB366" vertex="1" parent="Zg446pFr2e7XvsKzSFGU-2388">
          <mxGeometry x="27" y="72" width="83" height="62" as="geometry" />
        </mxCell>
        <mxCell id="Zg446pFr2e7XvsKzSFGU-2262" value="" style="shape=mxgraph.cisco.computers_and_peripherals.workstation;html=1;dashed=0;fillColor=#10739E;strokeColor=#ffffff;strokeWidth=2;verticalLabelPosition=bottom;verticalAlign=top;fontFamily=Helvetica;fontSize=36;fontColor=#FFB366" vertex="1" parent="Zg446pFr2e7XvsKzSFGU-2388">
          <mxGeometry x="27" y="150" width="83" height="62" as="geometry" />
        </mxCell>
        <mxCell id="Zg446pFr2e7XvsKzSFGU-2263" value="" style="shape=mxgraph.cisco.computers_and_peripherals.workstation;html=1;dashed=0;fillColor=#10739E;strokeColor=#ffffff;strokeWidth=2;verticalLabelPosition=bottom;verticalAlign=top;fontFamily=Helvetica;fontSize=36;fontColor=#FFB366" vertex="1" parent="Zg446pFr2e7XvsKzSFGU-2388">
          <mxGeometry x="27" y="228" width="83" height="62" as="geometry" />
        </mxCell>
        <mxCell id="Zg446pFr2e7XvsKzSFGU-2264" value="" style="shape=mxgraph.cisco.computers_and_peripherals.workstation;html=1;dashed=0;fillColor=#10739E;strokeColor=#ffffff;strokeWidth=2;verticalLabelPosition=bottom;verticalAlign=top;fontFamily=Helvetica;fontSize=36;fontColor=#FFB366" vertex="1" parent="Zg446pFr2e7XvsKzSFGU-2388">
          <mxGeometry x="27" y="303" width="83" height="62" as="geometry" />
        </mxCell>
        <mxCell id="Zg446pFr2e7XvsKzSFGU-2265" value="" style="shape=mxgraph.cisco.computers_and_peripherals.workstation;html=1;dashed=0;fillColor=#10739E;strokeColor=#ffffff;strokeWidth=2;verticalLabelPosition=bottom;verticalAlign=top;fontFamily=Helvetica;fontSize=36;fontColor=#FFB366" vertex="1" parent="Zg446pFr2e7XvsKzSFGU-2388">
          <mxGeometry x="27" y="376" width="83" height="62" as="geometry" />
        </mxCell>
        <mxCell id="Zg446pFr2e7XvsKzSFGU-2266" value="" style="shape=mxgraph.cisco.computers_and_peripherals.workstation;html=1;dashed=0;fillColor=#10739E;strokeColor=#ffffff;strokeWidth=2;verticalLabelPosition=bottom;verticalAlign=top;fontFamily=Helvetica;fontSize=36;fontColor=#FFB366" vertex="1" parent="Zg446pFr2e7XvsKzSFGU-2388">
          <mxGeometry x="27" y="446" width="83" height="62" as="geometry" />
        </mxCell>
        <mxCell id="Zg446pFr2e7XvsKzSFGU-2267" value="" style="shape=mxgraph.cisco.computers_and_peripherals.workstation;html=1;dashed=0;fillColor=#10739E;strokeColor=#ffffff;strokeWidth=2;verticalLabelPosition=bottom;verticalAlign=top;fontFamily=Helvetica;fontSize=36;fontColor=#FFB366" vertex="1" parent="Zg446pFr2e7XvsKzSFGU-2388">
          <mxGeometry x="27" y="517" width="83" height="62" as="geometry" />
        </mxCell>
        <mxCell id="Zg446pFr2e7XvsKzSFGU-2268" value="" style="shape=mxgraph.cisco.computers_and_peripherals.workstation;html=1;dashed=0;fillColor=#10739E;strokeColor=#ffffff;strokeWidth=2;verticalLabelPosition=bottom;verticalAlign=top;fontFamily=Helvetica;fontSize=36;fontColor=#FFB366" vertex="1" parent="Zg446pFr2e7XvsKzSFGU-2388">
          <mxGeometry x="27" y="589.9999999999999" width="83" height="62" as="geometry" />
        </mxCell>
        <mxCell id="Zg446pFr2e7XvsKzSFGU-2390" value="" style="group" vertex="1" connectable="0" parent="1">
          <mxGeometry x="566" y="417.6" width="187" height="679.9999999999999" as="geometry" />
        </mxCell>
        <mxCell id="Zg446pFr2e7XvsKzSFGU-2359" value="" style="rounded=1;whiteSpace=wrap;html=1;strokeColor=none;fillColor=#BAC8D3;fontSize=24;fontColor=#23445D;align=center;opacity=60;" vertex="1" parent="Zg446pFr2e7XvsKzSFGU-2390">
          <mxGeometry y="65" width="160" height="615" as="geometry" />
        </mxCell>
        <mxCell id="Zg446pFr2e7XvsKzSFGU-2360" value="" style="shape=mxgraph.cisco.switches.workgroup_switch;html=1;dashed=0;fillColor=#10739E;strokeColor=#ffffff;strokeWidth=2;verticalLabelPosition=bottom;verticalAlign=top;fontFamily=Helvetica;fontSize=36;fontColor=#FFB366" vertex="1" parent="Zg446pFr2e7XvsKzSFGU-2390">
          <mxGeometry x="86" width="101" height="50" as="geometry" />
        </mxCell>
        <mxCell id="Zg446pFr2e7XvsKzSFGU-2362" style="edgeStyle=orthogonalEdgeStyle;rounded=1;html=1;strokeColor=#23445D;endArrow=none;endFill=0;strokeWidth=4;entryX=0.675;entryY=0.532;entryDx=0;entryDy=0;entryPerimeter=0;" edge="1" parent="Zg446pFr2e7XvsKzSFGU-2390" source="Zg446pFr2e7XvsKzSFGU-2360" target="Zg446pFr2e7XvsKzSFGU-2371">
          <mxGeometry relative="1" as="geometry">
            <Array as="points">
              <mxPoint x="137" y="106" />
            </Array>
            <mxPoint x="104" y="106" as="targetPoint" />
          </mxGeometry>
        </mxCell>
        <mxCell id="Zg446pFr2e7XvsKzSFGU-2363" style="edgeStyle=orthogonalEdgeStyle;rounded=1;html=1;strokeColor=#23445D;endArrow=none;endFill=0;strokeWidth=4;entryX=0.699;entryY=0.387;entryDx=0;entryDy=0;entryPerimeter=0;" edge="1" parent="Zg446pFr2e7XvsKzSFGU-2390" source="Zg446pFr2e7XvsKzSFGU-2360" target="Zg446pFr2e7XvsKzSFGU-2372">
          <mxGeometry relative="1" as="geometry">
            <Array as="points">
              <mxPoint x="137" y="176" />
              <mxPoint x="85" y="176" />
            </Array>
            <mxPoint x="104" y="176" as="targetPoint" />
          </mxGeometry>
        </mxCell>
        <mxCell id="Zg446pFr2e7XvsKzSFGU-2364" style="edgeStyle=orthogonalEdgeStyle;rounded=1;html=1;strokeColor=#23445D;endArrow=none;endFill=0;strokeWidth=4;entryX=0.711;entryY=0.306;entryDx=0;entryDy=0;entryPerimeter=0;" edge="1" parent="Zg446pFr2e7XvsKzSFGU-2390" source="Zg446pFr2e7XvsKzSFGU-2360" target="Zg446pFr2e7XvsKzSFGU-2373">
          <mxGeometry relative="1" as="geometry">
            <Array as="points">
              <mxPoint x="137" y="246" />
            </Array>
            <mxPoint x="104" y="246" as="targetPoint" />
          </mxGeometry>
        </mxCell>
        <mxCell id="Zg446pFr2e7XvsKzSFGU-2365" style="edgeStyle=orthogonalEdgeStyle;rounded=1;html=1;strokeColor=#23445D;endArrow=none;endFill=0;strokeWidth=4;entryX=0.687;entryY=0.355;entryDx=0;entryDy=0;entryPerimeter=0;" edge="1" parent="Zg446pFr2e7XvsKzSFGU-2390" source="Zg446pFr2e7XvsKzSFGU-2360" target="Zg446pFr2e7XvsKzSFGU-2374">
          <mxGeometry relative="1" as="geometry">
            <Array as="points">
              <mxPoint x="137" y="326" />
            </Array>
            <mxPoint x="104" y="326" as="targetPoint" />
          </mxGeometry>
        </mxCell>
        <mxCell id="Zg446pFr2e7XvsKzSFGU-2366" style="edgeStyle=orthogonalEdgeStyle;rounded=1;html=1;strokeColor=#23445D;endArrow=none;endFill=0;strokeWidth=4;entryX=0.699;entryY=0.29;entryDx=0;entryDy=0;entryPerimeter=0;" edge="1" parent="Zg446pFr2e7XvsKzSFGU-2390" source="Zg446pFr2e7XvsKzSFGU-2360" target="Zg446pFr2e7XvsKzSFGU-2375">
          <mxGeometry relative="1" as="geometry">
            <Array as="points">
              <mxPoint x="137" y="396" />
              <mxPoint x="85" y="396" />
            </Array>
            <mxPoint x="104" y="396" as="targetPoint" />
          </mxGeometry>
        </mxCell>
        <mxCell id="Zg446pFr2e7XvsKzSFGU-2367" style="edgeStyle=orthogonalEdgeStyle;rounded=1;html=1;strokeColor=#23445D;endArrow=none;endFill=0;strokeWidth=4;entryX=0.614;entryY=0.323;entryDx=0;entryDy=0;entryPerimeter=0;" edge="1" parent="Zg446pFr2e7XvsKzSFGU-2390" source="Zg446pFr2e7XvsKzSFGU-2360" target="Zg446pFr2e7XvsKzSFGU-2376">
          <mxGeometry relative="1" as="geometry">
            <Array as="points">
              <mxPoint x="137" y="466" />
            </Array>
            <mxPoint x="104" y="466" as="targetPoint" />
          </mxGeometry>
        </mxCell>
        <mxCell id="Zg446pFr2e7XvsKzSFGU-2368" value="Classroom 3" style="rounded=1;whiteSpace=wrap;html=1;strokeColor=none;fillColor=none;fontSize=14;fontColor=#23445D;align=center;fontStyle=1" vertex="1" parent="Zg446pFr2e7XvsKzSFGU-2390">
          <mxGeometry x="34" y="651.9999999999999" width="93" height="20" as="geometry" />
        </mxCell>
        <mxCell id="Zg446pFr2e7XvsKzSFGU-2369" style="edgeStyle=orthogonalEdgeStyle;rounded=1;html=1;endArrow=none;endFill=0;strokeColor=#23445D;strokeWidth=4;fontSize=14;fontColor=#990000;entryX=0.687;entryY=0.355;entryDx=0;entryDy=0;entryPerimeter=0;" edge="1" parent="Zg446pFr2e7XvsKzSFGU-2390" source="Zg446pFr2e7XvsKzSFGU-2360" target="Zg446pFr2e7XvsKzSFGU-2377">
          <mxGeometry relative="1" as="geometry">
            <Array as="points">
              <mxPoint x="137" y="540" />
            </Array>
            <mxPoint x="104" y="540" as="targetPoint" />
          </mxGeometry>
        </mxCell>
        <mxCell id="Zg446pFr2e7XvsKzSFGU-2370" style="edgeStyle=orthogonalEdgeStyle;rounded=1;html=1;endArrow=none;endFill=0;strokeColor=#23445D;strokeWidth=4;fontSize=14;fontColor=#990000;entryX=0.687;entryY=0.323;entryDx=0;entryDy=0;entryPerimeter=0;" edge="1" parent="Zg446pFr2e7XvsKzSFGU-2390" source="Zg446pFr2e7XvsKzSFGU-2360" target="Zg446pFr2e7XvsKzSFGU-2378">
          <mxGeometry relative="1" as="geometry">
            <Array as="points">
              <mxPoint x="137" y="609.9999999999999" />
            </Array>
            <mxPoint x="104" y="609.9999999999999" as="targetPoint" />
          </mxGeometry>
        </mxCell>
        <mxCell id="Zg446pFr2e7XvsKzSFGU-2371" value="" style="shape=mxgraph.cisco.computers_and_peripherals.workstation;html=1;dashed=0;fillColor=#10739E;strokeColor=#ffffff;strokeWidth=2;verticalLabelPosition=bottom;verticalAlign=top;fontFamily=Helvetica;fontSize=36;fontColor=#FFB366" vertex="1" parent="Zg446pFr2e7XvsKzSFGU-2390">
          <mxGeometry x="27" y="72" width="83" height="62" as="geometry" />
        </mxCell>
        <mxCell id="Zg446pFr2e7XvsKzSFGU-2372" value="" style="shape=mxgraph.cisco.computers_and_peripherals.workstation;html=1;dashed=0;fillColor=#10739E;strokeColor=#ffffff;strokeWidth=2;verticalLabelPosition=bottom;verticalAlign=top;fontFamily=Helvetica;fontSize=36;fontColor=#FFB366" vertex="1" parent="Zg446pFr2e7XvsKzSFGU-2390">
          <mxGeometry x="27" y="150" width="83" height="62" as="geometry" />
        </mxCell>
        <mxCell id="Zg446pFr2e7XvsKzSFGU-2373" value="" style="shape=mxgraph.cisco.computers_and_peripherals.workstation;html=1;dashed=0;fillColor=#10739E;strokeColor=#ffffff;strokeWidth=2;verticalLabelPosition=bottom;verticalAlign=top;fontFamily=Helvetica;fontSize=36;fontColor=#FFB366" vertex="1" parent="Zg446pFr2e7XvsKzSFGU-2390">
          <mxGeometry x="27" y="228" width="83" height="62" as="geometry" />
        </mxCell>
        <mxCell id="Zg446pFr2e7XvsKzSFGU-2374" value="" style="shape=mxgraph.cisco.computers_and_peripherals.workstation;html=1;dashed=0;fillColor=#10739E;strokeColor=#ffffff;strokeWidth=2;verticalLabelPosition=bottom;verticalAlign=top;fontFamily=Helvetica;fontSize=36;fontColor=#FFB366" vertex="1" parent="Zg446pFr2e7XvsKzSFGU-2390">
          <mxGeometry x="27" y="303" width="83" height="62" as="geometry" />
        </mxCell>
        <mxCell id="Zg446pFr2e7XvsKzSFGU-2375" value="" style="shape=mxgraph.cisco.computers_and_peripherals.workstation;html=1;dashed=0;fillColor=#10739E;strokeColor=#ffffff;strokeWidth=2;verticalLabelPosition=bottom;verticalAlign=top;fontFamily=Helvetica;fontSize=36;fontColor=#FFB366" vertex="1" parent="Zg446pFr2e7XvsKzSFGU-2390">
          <mxGeometry x="27" y="376" width="83" height="62" as="geometry" />
        </mxCell>
        <mxCell id="Zg446pFr2e7XvsKzSFGU-2376" value="" style="shape=mxgraph.cisco.computers_and_peripherals.workstation;html=1;dashed=0;fillColor=#10739E;strokeColor=#ffffff;strokeWidth=2;verticalLabelPosition=bottom;verticalAlign=top;fontFamily=Helvetica;fontSize=36;fontColor=#FFB366" vertex="1" parent="Zg446pFr2e7XvsKzSFGU-2390">
          <mxGeometry x="27" y="446" width="83" height="62" as="geometry" />
        </mxCell>
        <mxCell id="Zg446pFr2e7XvsKzSFGU-2377" value="" style="shape=mxgraph.cisco.computers_and_peripherals.workstation;html=1;dashed=0;fillColor=#10739E;strokeColor=#ffffff;strokeWidth=2;verticalLabelPosition=bottom;verticalAlign=top;fontFamily=Helvetica;fontSize=36;fontColor=#FFB366" vertex="1" parent="Zg446pFr2e7XvsKzSFGU-2390">
          <mxGeometry x="27" y="517" width="83" height="62" as="geometry" />
        </mxCell>
        <mxCell id="Zg446pFr2e7XvsKzSFGU-2378" value="" style="shape=mxgraph.cisco.computers_and_peripherals.workstation;html=1;dashed=0;fillColor=#10739E;strokeColor=#ffffff;strokeWidth=2;verticalLabelPosition=bottom;verticalAlign=top;fontFamily=Helvetica;fontSize=36;fontColor=#FFB366" vertex="1" parent="Zg446pFr2e7XvsKzSFGU-2390">
          <mxGeometry x="27" y="589.9999999999999" width="83" height="62" as="geometry" />
        </mxCell>
        <mxCell id="Zg446pFr2e7XvsKzSFGU-2391" value="" style="group" vertex="1" connectable="0" parent="1">
          <mxGeometry x="766" y="417.6" width="187" height="679.9999999999999" as="geometry" />
        </mxCell>
        <mxCell id="Zg446pFr2e7XvsKzSFGU-2339" value="" style="rounded=1;whiteSpace=wrap;html=1;strokeColor=none;fillColor=#BAC8D3;fontSize=24;fontColor=#23445D;align=center;opacity=60;" vertex="1" parent="Zg446pFr2e7XvsKzSFGU-2391">
          <mxGeometry y="65" width="160" height="615" as="geometry" />
        </mxCell>
        <mxCell id="Zg446pFr2e7XvsKzSFGU-2340" value="" style="shape=mxgraph.cisco.switches.workgroup_switch;html=1;dashed=0;fillColor=#10739E;strokeColor=#ffffff;strokeWidth=2;verticalLabelPosition=bottom;verticalAlign=top;fontFamily=Helvetica;fontSize=36;fontColor=#FFB366" vertex="1" parent="Zg446pFr2e7XvsKzSFGU-2391">
          <mxGeometry x="86" width="101" height="50" as="geometry" />
        </mxCell>
        <mxCell id="Zg446pFr2e7XvsKzSFGU-2342" style="edgeStyle=orthogonalEdgeStyle;rounded=1;html=1;strokeColor=#23445D;endArrow=none;endFill=0;strokeWidth=4;entryX=0.675;entryY=0.532;entryDx=0;entryDy=0;entryPerimeter=0;" edge="1" parent="Zg446pFr2e7XvsKzSFGU-2391" source="Zg446pFr2e7XvsKzSFGU-2340" target="Zg446pFr2e7XvsKzSFGU-2351">
          <mxGeometry relative="1" as="geometry">
            <Array as="points">
              <mxPoint x="137" y="106" />
            </Array>
            <mxPoint x="104" y="106" as="targetPoint" />
          </mxGeometry>
        </mxCell>
        <mxCell id="Zg446pFr2e7XvsKzSFGU-2343" style="edgeStyle=orthogonalEdgeStyle;rounded=1;html=1;strokeColor=#23445D;endArrow=none;endFill=0;strokeWidth=4;entryX=0.699;entryY=0.387;entryDx=0;entryDy=0;entryPerimeter=0;" edge="1" parent="Zg446pFr2e7XvsKzSFGU-2391" source="Zg446pFr2e7XvsKzSFGU-2340" target="Zg446pFr2e7XvsKzSFGU-2352">
          <mxGeometry relative="1" as="geometry">
            <Array as="points">
              <mxPoint x="137" y="176" />
              <mxPoint x="85" y="176" />
            </Array>
            <mxPoint x="104" y="176" as="targetPoint" />
          </mxGeometry>
        </mxCell>
        <mxCell id="Zg446pFr2e7XvsKzSFGU-2344" style="edgeStyle=orthogonalEdgeStyle;rounded=1;html=1;strokeColor=#23445D;endArrow=none;endFill=0;strokeWidth=4;entryX=0.711;entryY=0.306;entryDx=0;entryDy=0;entryPerimeter=0;" edge="1" parent="Zg446pFr2e7XvsKzSFGU-2391" source="Zg446pFr2e7XvsKzSFGU-2340" target="Zg446pFr2e7XvsKzSFGU-2353">
          <mxGeometry relative="1" as="geometry">
            <Array as="points">
              <mxPoint x="137" y="246" />
            </Array>
            <mxPoint x="104" y="246" as="targetPoint" />
          </mxGeometry>
        </mxCell>
        <mxCell id="Zg446pFr2e7XvsKzSFGU-2345" style="edgeStyle=orthogonalEdgeStyle;rounded=1;html=1;strokeColor=#23445D;endArrow=none;endFill=0;strokeWidth=4;entryX=0.687;entryY=0.355;entryDx=0;entryDy=0;entryPerimeter=0;" edge="1" parent="Zg446pFr2e7XvsKzSFGU-2391" source="Zg446pFr2e7XvsKzSFGU-2340" target="Zg446pFr2e7XvsKzSFGU-2354">
          <mxGeometry relative="1" as="geometry">
            <Array as="points">
              <mxPoint x="137" y="326" />
            </Array>
            <mxPoint x="104" y="326" as="targetPoint" />
          </mxGeometry>
        </mxCell>
        <mxCell id="Zg446pFr2e7XvsKzSFGU-2346" style="edgeStyle=orthogonalEdgeStyle;rounded=1;html=1;strokeColor=#23445D;endArrow=none;endFill=0;strokeWidth=4;entryX=0.699;entryY=0.29;entryDx=0;entryDy=0;entryPerimeter=0;" edge="1" parent="Zg446pFr2e7XvsKzSFGU-2391" source="Zg446pFr2e7XvsKzSFGU-2340" target="Zg446pFr2e7XvsKzSFGU-2355">
          <mxGeometry relative="1" as="geometry">
            <Array as="points">
              <mxPoint x="137" y="396" />
              <mxPoint x="85" y="396" />
            </Array>
            <mxPoint x="104" y="396" as="targetPoint" />
          </mxGeometry>
        </mxCell>
        <mxCell id="Zg446pFr2e7XvsKzSFGU-2347" style="edgeStyle=orthogonalEdgeStyle;rounded=1;html=1;strokeColor=#23445D;endArrow=none;endFill=0;strokeWidth=4;entryX=0.614;entryY=0.323;entryDx=0;entryDy=0;entryPerimeter=0;" edge="1" parent="Zg446pFr2e7XvsKzSFGU-2391" source="Zg446pFr2e7XvsKzSFGU-2340" target="Zg446pFr2e7XvsKzSFGU-2356">
          <mxGeometry relative="1" as="geometry">
            <Array as="points">
              <mxPoint x="137" y="466" />
            </Array>
            <mxPoint x="104" y="466" as="targetPoint" />
          </mxGeometry>
        </mxCell>
        <mxCell id="Zg446pFr2e7XvsKzSFGU-2348" value="Classroom 4" style="rounded=1;whiteSpace=wrap;html=1;strokeColor=none;fillColor=none;fontSize=14;fontColor=#23445D;align=center;fontStyle=1" vertex="1" parent="Zg446pFr2e7XvsKzSFGU-2391">
          <mxGeometry x="35" y="651.9999999999999" width="93" height="20" as="geometry" />
        </mxCell>
        <mxCell id="Zg446pFr2e7XvsKzSFGU-2349" style="edgeStyle=orthogonalEdgeStyle;rounded=1;html=1;endArrow=none;endFill=0;strokeColor=#23445D;strokeWidth=4;fontSize=14;fontColor=#990000;entryX=0.687;entryY=0.355;entryDx=0;entryDy=0;entryPerimeter=0;" edge="1" parent="Zg446pFr2e7XvsKzSFGU-2391" source="Zg446pFr2e7XvsKzSFGU-2340" target="Zg446pFr2e7XvsKzSFGU-2357">
          <mxGeometry relative="1" as="geometry">
            <Array as="points">
              <mxPoint x="137" y="540" />
            </Array>
            <mxPoint x="104" y="540" as="targetPoint" />
          </mxGeometry>
        </mxCell>
        <mxCell id="Zg446pFr2e7XvsKzSFGU-2350" style="edgeStyle=orthogonalEdgeStyle;rounded=1;html=1;endArrow=none;endFill=0;strokeColor=#23445D;strokeWidth=4;fontSize=14;fontColor=#990000;entryX=0.735;entryY=0.29;entryDx=0;entryDy=0;entryPerimeter=0;" edge="1" parent="Zg446pFr2e7XvsKzSFGU-2391" source="Zg446pFr2e7XvsKzSFGU-2340" target="Zg446pFr2e7XvsKzSFGU-2358">
          <mxGeometry relative="1" as="geometry">
            <Array as="points">
              <mxPoint x="137" y="609.9999999999999" />
              <mxPoint x="88" y="609.9999999999999" />
            </Array>
            <mxPoint x="104" y="609.9999999999999" as="targetPoint" />
          </mxGeometry>
        </mxCell>
        <mxCell id="Zg446pFr2e7XvsKzSFGU-2351" value="" style="shape=mxgraph.cisco.computers_and_peripherals.workstation;html=1;dashed=0;fillColor=#10739E;strokeColor=#ffffff;strokeWidth=2;verticalLabelPosition=bottom;verticalAlign=top;fontFamily=Helvetica;fontSize=36;fontColor=#FFB366" vertex="1" parent="Zg446pFr2e7XvsKzSFGU-2391">
          <mxGeometry x="27" y="72" width="83" height="62" as="geometry" />
        </mxCell>
        <mxCell id="Zg446pFr2e7XvsKzSFGU-2352" value="" style="shape=mxgraph.cisco.computers_and_peripherals.workstation;html=1;dashed=0;fillColor=#10739E;strokeColor=#ffffff;strokeWidth=2;verticalLabelPosition=bottom;verticalAlign=top;fontFamily=Helvetica;fontSize=36;fontColor=#FFB366" vertex="1" parent="Zg446pFr2e7XvsKzSFGU-2391">
          <mxGeometry x="27" y="150" width="83" height="62" as="geometry" />
        </mxCell>
        <mxCell id="Zg446pFr2e7XvsKzSFGU-2353" value="" style="shape=mxgraph.cisco.computers_and_peripherals.workstation;html=1;dashed=0;fillColor=#10739E;strokeColor=#ffffff;strokeWidth=2;verticalLabelPosition=bottom;verticalAlign=top;fontFamily=Helvetica;fontSize=36;fontColor=#FFB366" vertex="1" parent="Zg446pFr2e7XvsKzSFGU-2391">
          <mxGeometry x="27" y="228" width="83" height="62" as="geometry" />
        </mxCell>
        <mxCell id="Zg446pFr2e7XvsKzSFGU-2354" value="" style="shape=mxgraph.cisco.computers_and_peripherals.workstation;html=1;dashed=0;fillColor=#10739E;strokeColor=#ffffff;strokeWidth=2;verticalLabelPosition=bottom;verticalAlign=top;fontFamily=Helvetica;fontSize=36;fontColor=#FFB366" vertex="1" parent="Zg446pFr2e7XvsKzSFGU-2391">
          <mxGeometry x="27" y="303" width="83" height="62" as="geometry" />
        </mxCell>
        <mxCell id="Zg446pFr2e7XvsKzSFGU-2355" value="" style="shape=mxgraph.cisco.computers_and_peripherals.workstation;html=1;dashed=0;fillColor=#10739E;strokeColor=#ffffff;strokeWidth=2;verticalLabelPosition=bottom;verticalAlign=top;fontFamily=Helvetica;fontSize=36;fontColor=#FFB366" vertex="1" parent="Zg446pFr2e7XvsKzSFGU-2391">
          <mxGeometry x="27" y="376" width="83" height="62" as="geometry" />
        </mxCell>
        <mxCell id="Zg446pFr2e7XvsKzSFGU-2356" value="" style="shape=mxgraph.cisco.computers_and_peripherals.workstation;html=1;dashed=0;fillColor=#10739E;strokeColor=#ffffff;strokeWidth=2;verticalLabelPosition=bottom;verticalAlign=top;fontFamily=Helvetica;fontSize=36;fontColor=#FFB366" vertex="1" parent="Zg446pFr2e7XvsKzSFGU-2391">
          <mxGeometry x="27" y="446" width="83" height="62" as="geometry" />
        </mxCell>
        <mxCell id="Zg446pFr2e7XvsKzSFGU-2357" value="" style="shape=mxgraph.cisco.computers_and_peripherals.workstation;html=1;dashed=0;fillColor=#10739E;strokeColor=#ffffff;strokeWidth=2;verticalLabelPosition=bottom;verticalAlign=top;fontFamily=Helvetica;fontSize=36;fontColor=#FFB366" vertex="1" parent="Zg446pFr2e7XvsKzSFGU-2391">
          <mxGeometry x="27" y="517" width="83" height="62" as="geometry" />
        </mxCell>
        <mxCell id="Zg446pFr2e7XvsKzSFGU-2358" value="" style="shape=mxgraph.cisco.computers_and_peripherals.workstation;html=1;dashed=0;fillColor=#10739E;strokeColor=#ffffff;strokeWidth=2;verticalLabelPosition=bottom;verticalAlign=top;fontFamily=Helvetica;fontSize=36;fontColor=#FFB366" vertex="1" parent="Zg446pFr2e7XvsKzSFGU-2391">
          <mxGeometry x="27" y="589.9999999999999" width="83" height="62" as="geometry" />
        </mxCell>
        <mxCell id="Zg446pFr2e7XvsKzSFGU-2392" value="" style="edgeStyle=elbowEdgeStyle;elbow=horizontal;endArrow=none;html=1;strokeColor=#23445D;endFill=0;strokeWidth=4;rounded=0;exitX=0.5;exitY=0;exitDx=0;exitDy=0;exitPerimeter=0;entryX=0;entryY=0.5;entryDx=0;entryDy=0;entryPerimeter=0;" edge="1" parent="1" source="Zg446pFr2e7XvsKzSFGU-2320" target="2113">
          <mxGeometry width="100" height="100" relative="1" as="geometry">
            <mxPoint x="305" y="417.6" as="sourcePoint" />
            <mxPoint x="295" y="363" as="targetPoint" />
            <Array as="points">
              <mxPoint x="292" y="393" />
            </Array>
          </mxGeometry>
        </mxCell>
        <mxCell id="Zg446pFr2e7XvsKzSFGU-2393" value="" style="edgeStyle=elbowEdgeStyle;elbow=horizontal;endArrow=none;html=1;strokeColor=#23445D;endFill=0;strokeWidth=4;rounded=0;exitX=0.5;exitY=0;exitDx=0;exitDy=0;exitPerimeter=0;entryX=0;entryY=0.5;entryDx=0;entryDy=0;entryPerimeter=0;" edge="1" parent="1" source="2117" target="2113">
          <mxGeometry width="100" height="100" relative="1" as="geometry">
            <mxPoint x="505" y="417.6" as="sourcePoint" />
            <mxPoint x="495" y="363" as="targetPoint" />
            <Array as="points">
              <mxPoint x="492" y="403" />
            </Array>
          </mxGeometry>
        </mxCell>
        <mxCell id="Zg446pFr2e7XvsKzSFGU-2394" value="" style="edgeStyle=elbowEdgeStyle;elbow=horizontal;endArrow=none;html=1;strokeColor=#23445D;endFill=0;strokeWidth=4;rounded=0;exitX=0.5;exitY=0;exitDx=0;exitDy=0;exitPerimeter=0;entryX=0;entryY=0.5;entryDx=0;entryDy=0;entryPerimeter=0;" edge="1" parent="1" source="Zg446pFr2e7XvsKzSFGU-2360" target="2113">
          <mxGeometry width="100" height="100" relative="1" as="geometry">
            <mxPoint x="705" y="417.6" as="sourcePoint" />
            <mxPoint x="706" y="363" as="targetPoint" />
            <Array as="points">
              <mxPoint x="703" y="393" />
            </Array>
          </mxGeometry>
        </mxCell>
        <mxCell id="Zg446pFr2e7XvsKzSFGU-2395" value="" style="edgeStyle=elbowEdgeStyle;elbow=horizontal;endArrow=none;html=1;strokeColor=#23445D;endFill=0;strokeWidth=4;rounded=0;exitX=0.5;exitY=0;exitDx=0;exitDy=0;exitPerimeter=0;entryX=0;entryY=0.5;entryDx=0;entryDy=0;entryPerimeter=0;" edge="1" parent="1" source="Zg446pFr2e7XvsKzSFGU-2340" target="2113">
          <mxGeometry width="100" height="100" relative="1" as="geometry">
            <mxPoint x="905" y="417.6" as="sourcePoint" />
            <mxPoint x="905" y="363" as="targetPoint" />
            <Array as="points">
              <mxPoint x="905" y="393" />
            </Array>
          </mxGeometry>
        </mxCell>
        <mxCell id="Zg446pFr2e7XvsKzSFGU-2396" value="" style="group" vertex="1" connectable="0" parent="1">
          <mxGeometry x="1086" y="417.6" width="190" height="679.9999999999999" as="geometry" />
        </mxCell>
        <mxCell id="Zg446pFr2e7XvsKzSFGU-2397" value="" style="rounded=1;whiteSpace=wrap;html=1;strokeColor=none;fillColor=#BAC8D3;fontSize=24;fontColor=#23445D;align=center;opacity=60;" vertex="1" parent="Zg446pFr2e7XvsKzSFGU-2396">
          <mxGeometry y="65" width="160" height="615" as="geometry" />
        </mxCell>
        <mxCell id="Zg446pFr2e7XvsKzSFGU-2398" value="" style="shape=mxgraph.cisco.switches.workgroup_switch;html=1;dashed=0;fillColor=#10739E;strokeColor=#ffffff;strokeWidth=2;verticalLabelPosition=bottom;verticalAlign=top;fontFamily=Helvetica;fontSize=36;fontColor=#FFB366" vertex="1" parent="Zg446pFr2e7XvsKzSFGU-2396">
          <mxGeometry x="86" width="101" height="50" as="geometry" />
        </mxCell>
        <mxCell id="Zg446pFr2e7XvsKzSFGU-2399" style="edgeStyle=orthogonalEdgeStyle;rounded=1;html=1;strokeColor=#23445D;endArrow=none;endFill=0;strokeWidth=4;entryX=0.675;entryY=0.532;entryDx=0;entryDy=0;entryPerimeter=0;" edge="1" parent="Zg446pFr2e7XvsKzSFGU-2396" source="Zg446pFr2e7XvsKzSFGU-2398" target="Zg446pFr2e7XvsKzSFGU-2408">
          <mxGeometry relative="1" as="geometry">
            <Array as="points">
              <mxPoint x="137" y="106" />
            </Array>
            <mxPoint x="104" y="106" as="targetPoint" />
          </mxGeometry>
        </mxCell>
        <mxCell id="Zg446pFr2e7XvsKzSFGU-2400" style="edgeStyle=orthogonalEdgeStyle;rounded=1;html=1;strokeColor=#23445D;endArrow=none;endFill=0;strokeWidth=4;entryX=0.699;entryY=0.387;entryDx=0;entryDy=0;entryPerimeter=0;" edge="1" parent="Zg446pFr2e7XvsKzSFGU-2396" source="Zg446pFr2e7XvsKzSFGU-2398" target="Zg446pFr2e7XvsKzSFGU-2409">
          <mxGeometry relative="1" as="geometry">
            <Array as="points">
              <mxPoint x="137" y="176" />
              <mxPoint x="85" y="176" />
            </Array>
            <mxPoint x="104" y="176" as="targetPoint" />
          </mxGeometry>
        </mxCell>
        <mxCell id="Zg446pFr2e7XvsKzSFGU-2401" style="edgeStyle=orthogonalEdgeStyle;rounded=1;html=1;strokeColor=#23445D;endArrow=none;endFill=0;strokeWidth=4;entryX=0.711;entryY=0.306;entryDx=0;entryDy=0;entryPerimeter=0;" edge="1" parent="Zg446pFr2e7XvsKzSFGU-2396" source="Zg446pFr2e7XvsKzSFGU-2398" target="Zg446pFr2e7XvsKzSFGU-2410">
          <mxGeometry relative="1" as="geometry">
            <Array as="points">
              <mxPoint x="137" y="246" />
            </Array>
            <mxPoint x="104" y="246" as="targetPoint" />
          </mxGeometry>
        </mxCell>
        <mxCell id="Zg446pFr2e7XvsKzSFGU-2402" style="edgeStyle=orthogonalEdgeStyle;rounded=1;html=1;strokeColor=#23445D;endArrow=none;endFill=0;strokeWidth=4;entryX=0.687;entryY=0.355;entryDx=0;entryDy=0;entryPerimeter=0;" edge="1" parent="Zg446pFr2e7XvsKzSFGU-2396" source="Zg446pFr2e7XvsKzSFGU-2398" target="Zg446pFr2e7XvsKzSFGU-2411">
          <mxGeometry relative="1" as="geometry">
            <Array as="points">
              <mxPoint x="137" y="326" />
            </Array>
            <mxPoint x="104" y="326" as="targetPoint" />
          </mxGeometry>
        </mxCell>
        <mxCell id="Zg446pFr2e7XvsKzSFGU-2403" style="edgeStyle=orthogonalEdgeStyle;rounded=1;html=1;strokeColor=#23445D;endArrow=none;endFill=0;strokeWidth=4;entryX=0.699;entryY=0.29;entryDx=0;entryDy=0;entryPerimeter=0;" edge="1" parent="Zg446pFr2e7XvsKzSFGU-2396" source="Zg446pFr2e7XvsKzSFGU-2398" target="Zg446pFr2e7XvsKzSFGU-2412">
          <mxGeometry relative="1" as="geometry">
            <Array as="points">
              <mxPoint x="137" y="396" />
              <mxPoint x="85" y="396" />
            </Array>
            <mxPoint x="104" y="396" as="targetPoint" />
          </mxGeometry>
        </mxCell>
        <mxCell id="Zg446pFr2e7XvsKzSFGU-2404" style="edgeStyle=orthogonalEdgeStyle;rounded=1;html=1;strokeColor=#23445D;endArrow=none;endFill=0;strokeWidth=4;entryX=0.614;entryY=0.323;entryDx=0;entryDy=0;entryPerimeter=0;" edge="1" parent="Zg446pFr2e7XvsKzSFGU-2396" source="Zg446pFr2e7XvsKzSFGU-2398" target="Zg446pFr2e7XvsKzSFGU-2413">
          <mxGeometry relative="1" as="geometry">
            <Array as="points">
              <mxPoint x="137" y="466" />
            </Array>
            <mxPoint x="104" y="466" as="targetPoint" />
          </mxGeometry>
        </mxCell>
        <mxCell id="Zg446pFr2e7XvsKzSFGU-2405" value="Staff" style="rounded=1;whiteSpace=wrap;html=1;strokeColor=none;fillColor=none;fontSize=14;fontColor=#23445D;align=center;fontStyle=1" vertex="1" parent="Zg446pFr2e7XvsKzSFGU-2396">
          <mxGeometry x="35" y="651.9999999999999" width="93" height="20" as="geometry" />
        </mxCell>
        <mxCell id="Zg446pFr2e7XvsKzSFGU-2406" style="edgeStyle=orthogonalEdgeStyle;rounded=1;html=1;endArrow=none;endFill=0;strokeColor=#23445D;strokeWidth=4;fontSize=14;fontColor=#990000;entryX=0.687;entryY=0.355;entryDx=0;entryDy=0;entryPerimeter=0;" edge="1" parent="Zg446pFr2e7XvsKzSFGU-2396" source="Zg446pFr2e7XvsKzSFGU-2398" target="Zg446pFr2e7XvsKzSFGU-2414">
          <mxGeometry relative="1" as="geometry">
            <Array as="points">
              <mxPoint x="137" y="540" />
            </Array>
            <mxPoint x="104" y="540" as="targetPoint" />
          </mxGeometry>
        </mxCell>
        <mxCell id="Zg446pFr2e7XvsKzSFGU-2407" style="edgeStyle=orthogonalEdgeStyle;rounded=1;html=1;endArrow=none;endFill=0;strokeColor=#23445D;strokeWidth=4;fontSize=14;fontColor=#990000;entryX=0.735;entryY=0.29;entryDx=0;entryDy=0;entryPerimeter=0;" edge="1" parent="Zg446pFr2e7XvsKzSFGU-2396" source="Zg446pFr2e7XvsKzSFGU-2398" target="Zg446pFr2e7XvsKzSFGU-2415">
          <mxGeometry relative="1" as="geometry">
            <Array as="points">
              <mxPoint x="137" y="609.9999999999999" />
              <mxPoint x="88" y="609.9999999999999" />
            </Array>
            <mxPoint x="104" y="609.9999999999999" as="targetPoint" />
          </mxGeometry>
        </mxCell>
        <mxCell id="Zg446pFr2e7XvsKzSFGU-2408" value="" style="shape=mxgraph.cisco.computers_and_peripherals.workstation;html=1;dashed=0;fillColor=#10739E;strokeColor=#ffffff;strokeWidth=2;verticalLabelPosition=bottom;verticalAlign=top;fontFamily=Helvetica;fontSize=36;fontColor=#FFB366" vertex="1" parent="Zg446pFr2e7XvsKzSFGU-2396">
          <mxGeometry x="27" y="72" width="83" height="62" as="geometry" />
        </mxCell>
        <mxCell id="Zg446pFr2e7XvsKzSFGU-2409" value="" style="shape=mxgraph.cisco.computers_and_peripherals.workstation;html=1;dashed=0;fillColor=#10739E;strokeColor=#ffffff;strokeWidth=2;verticalLabelPosition=bottom;verticalAlign=top;fontFamily=Helvetica;fontSize=36;fontColor=#FFB366" vertex="1" parent="Zg446pFr2e7XvsKzSFGU-2396">
          <mxGeometry x="27" y="150" width="83" height="62" as="geometry" />
        </mxCell>
        <mxCell id="Zg446pFr2e7XvsKzSFGU-2410" value="" style="shape=mxgraph.cisco.computers_and_peripherals.workstation;html=1;dashed=0;fillColor=#10739E;strokeColor=#ffffff;strokeWidth=2;verticalLabelPosition=bottom;verticalAlign=top;fontFamily=Helvetica;fontSize=36;fontColor=#FFB366" vertex="1" parent="Zg446pFr2e7XvsKzSFGU-2396">
          <mxGeometry x="27" y="228" width="83" height="62" as="geometry" />
        </mxCell>
        <mxCell id="Zg446pFr2e7XvsKzSFGU-2411" value="" style="shape=mxgraph.cisco.computers_and_peripherals.workstation;html=1;dashed=0;fillColor=#10739E;strokeColor=#ffffff;strokeWidth=2;verticalLabelPosition=bottom;verticalAlign=top;fontFamily=Helvetica;fontSize=36;fontColor=#FFB366" vertex="1" parent="Zg446pFr2e7XvsKzSFGU-2396">
          <mxGeometry x="27" y="303" width="83" height="62" as="geometry" />
        </mxCell>
        <mxCell id="Zg446pFr2e7XvsKzSFGU-2412" value="" style="shape=mxgraph.cisco.computers_and_peripherals.workstation;html=1;dashed=0;fillColor=#10739E;strokeColor=#ffffff;strokeWidth=2;verticalLabelPosition=bottom;verticalAlign=top;fontFamily=Helvetica;fontSize=36;fontColor=#FFB366" vertex="1" parent="Zg446pFr2e7XvsKzSFGU-2396">
          <mxGeometry x="27" y="376" width="83" height="62" as="geometry" />
        </mxCell>
        <mxCell id="Zg446pFr2e7XvsKzSFGU-2413" value="" style="shape=mxgraph.cisco.computers_and_peripherals.workstation;html=1;dashed=0;fillColor=#10739E;strokeColor=#ffffff;strokeWidth=2;verticalLabelPosition=bottom;verticalAlign=top;fontFamily=Helvetica;fontSize=36;fontColor=#FFB366" vertex="1" parent="Zg446pFr2e7XvsKzSFGU-2396">
          <mxGeometry x="27" y="446" width="83" height="62" as="geometry" />
        </mxCell>
        <mxCell id="Zg446pFr2e7XvsKzSFGU-2414" value="" style="shape=mxgraph.cisco.computers_and_peripherals.workstation;html=1;dashed=0;fillColor=#10739E;strokeColor=#ffffff;strokeWidth=2;verticalLabelPosition=bottom;verticalAlign=top;fontFamily=Helvetica;fontSize=36;fontColor=#FFB366" vertex="1" parent="Zg446pFr2e7XvsKzSFGU-2396">
          <mxGeometry x="27" y="517" width="83" height="62" as="geometry" />
        </mxCell>
        <mxCell id="Zg446pFr2e7XvsKzSFGU-2415" value="" style="shape=mxgraph.cisco.computers_and_peripherals.workstation;html=1;dashed=0;fillColor=#10739E;strokeColor=#ffffff;strokeWidth=2;verticalLabelPosition=bottom;verticalAlign=top;fontFamily=Helvetica;fontSize=36;fontColor=#FFB366" vertex="1" parent="Zg446pFr2e7XvsKzSFGU-2396">
          <mxGeometry x="27" y="589.9999999999999" width="83" height="62" as="geometry" />
        </mxCell>
        <mxCell id="Zg446pFr2e7XvsKzSFGU-2416" style="edgeStyle=none;rounded=0;html=1;strokeColor=#23445D;endArrow=none;endFill=0;strokeWidth=4;exitX=1;exitY=0.5;exitDx=0;exitDy=0;exitPerimeter=0;entryX=0.574;entryY=0.105;entryDx=0;entryDy=0;entryPerimeter=0;" edge="1" parent="1" source="2113" target="Zg446pFr2e7XvsKzSFGU-2398">
          <mxGeometry relative="1" as="geometry">
            <mxPoint x="575" y="361.62" as="sourcePoint" />
            <mxPoint x="1305" y="365" as="targetPoint" />
            <Array as="points">
              <mxPoint x="1230" y="363" />
            </Array>
          </mxGeometry>
        </mxCell>
        <mxCell id="Zg446pFr2e7XvsKzSFGU-2419" value="&lt;font style=&quot;font-size: 16px;&quot;&gt;Student network (192.168.3.0/24)&lt;/font&gt;" style="text;strokeColor=none;align=center;fillColor=none;html=1;verticalAlign=middle;whiteSpace=wrap;rounded=0;" vertex="1" parent="1">
          <mxGeometry x="745" y="330" width="248" height="30" as="geometry" />
        </mxCell>
        <mxCell id="Zg446pFr2e7XvsKzSFGU-2420" value="&lt;font style=&quot;font-size: 16px;&quot;&gt;Staff network (192.168.2.0/24)&lt;/font&gt;" style="text;strokeColor=none;align=center;fillColor=none;html=1;verticalAlign=middle;whiteSpace=wrap;rounded=0;" vertex="1" parent="1">
          <mxGeometry x="1125.5" y="330" width="248" height="30" as="geometry" />
        </mxCell>
        <mxCell id="Zg446pFr2e7XvsKzSFGU-2422" value="Aegis (scouthack)&lt;br style=&quot;font-size: 16px;&quot;&gt;192.168.1.1/24&lt;br style=&quot;font-size: 16px;&quot;&gt;192.168.2.1/24&lt;br style=&quot;border-color: var(--border-color); font-size: 16px;&quot;&gt;192.168.3.1/24" style="text;strokeColor=none;align=center;fillColor=none;html=1;verticalAlign=middle;whiteSpace=wrap;rounded=0;fontSize=16;" vertex="1" parent="1">
          <mxGeometry x="1109" y="136" width="110" height="100" as="geometry" />
        </mxCell>
        <mxCell id="Zg446pFr2e7XvsKzSFGU-2426" value="" style="edgeStyle=elbowEdgeStyle;elbow=horizontal;endArrow=none;html=1;strokeColor=#23445D;endFill=0;strokeWidth=4;rounded=1;entryX=0;entryY=0.67;entryDx=0;entryDy=0;entryPerimeter=0;" edge="1" parent="1" source="Zg446pFr2e7XvsKzSFGU-2398" target="Zg446pFr2e7XvsKzSFGU-2470">
          <mxGeometry width="100" height="100" relative="1" as="geometry">
            <mxPoint x="1111.75" y="521.6" as="sourcePoint" />
            <mxPoint x="1122" y="442.5999999999999" as="targetPoint" />
          </mxGeometry>
        </mxCell>
        <mxCell id="Zg446pFr2e7XvsKzSFGU-2468" value="" style="group" vertex="1" connectable="0" parent="1">
          <mxGeometry x="1299.3" y="482.6" width="133" height="615" as="geometry" />
        </mxCell>
        <mxCell id="Zg446pFr2e7XvsKzSFGU-2449" value="" style="rounded=1;whiteSpace=wrap;html=1;strokeColor=none;fillColor=#BAC8D3;fontSize=24;fontColor=#23445D;align=center;opacity=60;" vertex="1" parent="Zg446pFr2e7XvsKzSFGU-2468">
          <mxGeometry width="133" height="615" as="geometry" />
        </mxCell>
        <mxCell id="Zg446pFr2e7XvsKzSFGU-2457" value="Staff Wifi" style="rounded=1;whiteSpace=wrap;html=1;strokeColor=none;fillColor=none;fontSize=14;fontColor=#23445D;align=center;fontStyle=1" vertex="1" parent="Zg446pFr2e7XvsKzSFGU-2468">
          <mxGeometry x="18" y="587" width="93" height="20" as="geometry" />
        </mxCell>
        <mxCell id="Zg446pFr2e7XvsKzSFGU-2460" value="" style="shape=mxgraph.cisco.computers_and_peripherals.workstation;html=1;dashed=0;fillColor=#10739E;strokeColor=#ffffff;strokeWidth=2;verticalLabelPosition=bottom;verticalAlign=top;fontFamily=Helvetica;fontSize=36;fontColor=#FFB366" vertex="1" parent="Zg446pFr2e7XvsKzSFGU-2468">
          <mxGeometry x="27" y="7" width="83" height="62" as="geometry" />
        </mxCell>
        <mxCell id="Zg446pFr2e7XvsKzSFGU-2461" value="" style="shape=mxgraph.cisco.computers_and_peripherals.workstation;html=1;dashed=0;fillColor=#10739E;strokeColor=#ffffff;strokeWidth=2;verticalLabelPosition=bottom;verticalAlign=top;fontFamily=Helvetica;fontSize=36;fontColor=#FFB366" vertex="1" parent="Zg446pFr2e7XvsKzSFGU-2468">
          <mxGeometry x="27" y="85" width="83" height="62" as="geometry" />
        </mxCell>
        <mxCell id="Zg446pFr2e7XvsKzSFGU-2462" value="" style="shape=mxgraph.cisco.computers_and_peripherals.workstation;html=1;dashed=0;fillColor=#10739E;strokeColor=#ffffff;strokeWidth=2;verticalLabelPosition=bottom;verticalAlign=top;fontFamily=Helvetica;fontSize=36;fontColor=#FFB366" vertex="1" parent="Zg446pFr2e7XvsKzSFGU-2468">
          <mxGeometry x="27" y="163" width="83" height="62" as="geometry" />
        </mxCell>
        <mxCell id="Zg446pFr2e7XvsKzSFGU-2463" value="" style="shape=mxgraph.cisco.computers_and_peripherals.workstation;html=1;dashed=0;fillColor=#10739E;strokeColor=#ffffff;strokeWidth=2;verticalLabelPosition=bottom;verticalAlign=top;fontFamily=Helvetica;fontSize=36;fontColor=#FFB366" vertex="1" parent="Zg446pFr2e7XvsKzSFGU-2468">
          <mxGeometry x="27" y="238" width="83" height="62" as="geometry" />
        </mxCell>
        <mxCell id="Zg446pFr2e7XvsKzSFGU-2464" value="" style="shape=mxgraph.cisco.computers_and_peripherals.workstation;html=1;dashed=0;fillColor=#10739E;strokeColor=#ffffff;strokeWidth=2;verticalLabelPosition=bottom;verticalAlign=top;fontFamily=Helvetica;fontSize=36;fontColor=#FFB366" vertex="1" parent="Zg446pFr2e7XvsKzSFGU-2468">
          <mxGeometry x="27" y="311" width="83" height="62" as="geometry" />
        </mxCell>
        <mxCell id="Zg446pFr2e7XvsKzSFGU-2465" value="" style="shape=mxgraph.cisco.computers_and_peripherals.workstation;html=1;dashed=0;fillColor=#10739E;strokeColor=#ffffff;strokeWidth=2;verticalLabelPosition=bottom;verticalAlign=top;fontFamily=Helvetica;fontSize=36;fontColor=#FFB366" vertex="1" parent="Zg446pFr2e7XvsKzSFGU-2468">
          <mxGeometry x="27" y="381" width="83" height="62" as="geometry" />
        </mxCell>
        <mxCell id="Zg446pFr2e7XvsKzSFGU-2466" value="" style="shape=mxgraph.cisco.computers_and_peripherals.workstation;html=1;dashed=0;fillColor=#10739E;strokeColor=#ffffff;strokeWidth=2;verticalLabelPosition=bottom;verticalAlign=top;fontFamily=Helvetica;fontSize=36;fontColor=#FFB366" vertex="1" parent="Zg446pFr2e7XvsKzSFGU-2468">
          <mxGeometry x="27" y="452" width="83" height="62" as="geometry" />
        </mxCell>
        <mxCell id="Zg446pFr2e7XvsKzSFGU-2467" value="" style="shape=mxgraph.cisco.computers_and_peripherals.workstation;html=1;dashed=0;fillColor=#10739E;strokeColor=#ffffff;strokeWidth=2;verticalLabelPosition=bottom;verticalAlign=top;fontFamily=Helvetica;fontSize=36;fontColor=#FFB366" vertex="1" parent="Zg446pFr2e7XvsKzSFGU-2468">
          <mxGeometry x="27" y="525" width="83" height="62" as="geometry" />
        </mxCell>
        <mxCell id="Zg446pFr2e7XvsKzSFGU-2470" value="" style="points=[[0.03,0.36,0],[0.18,0,0],[0.5,0.34,0],[0.82,0,0],[0.97,0.36,0],[1,0.67,0],[0.975,0.975,0],[0.5,1,0],[0.025,0.975,0],[0,0.67,0]];verticalLabelPosition=bottom;sketch=0;html=1;verticalAlign=top;aspect=fixed;align=center;pointerEvents=1;shape=mxgraph.cisco19.wireless_access_point;fillColor=#005073;strokeColor=none;" vertex="1" parent="1">
          <mxGeometry x="1325" y="388" width="81.6" height="81.6" as="geometry" />
        </mxCell>
      </root>
    </mxGraphModel>
  </diagram>
</mxfile>
